<svg width="366" height="80" viewBox="0 0 366 80" fill="none" xmlns="http://www.w3.org/2000/svg">
<path d="M265.939 80L288.191 2.3759e-05L293.812 2.42503e-05L315.834 72.0228L338.201 2.8131e-05L343.592 2.86023e-05L365.5 80L359.995 80L340.725 7.17951L318.587 80L312.852 80L290.944 6.72367L271.559 80L265.939 80Z" fill="#FF2626"/>
<path d="M204.26 80L235 1.91088e-05L240.735 1.96102e-05L271.36 80L265.74 80L237.867 6.0399L209.765 80L204.26 80Z" fill="#FF2626"/>
<path d="M179.817 40L155.615 1.21688e-05L161.464 1.26802e-05L183.143 35.8974L203.904 1.63904e-05L209.639 1.68918e-05L185.781 40.3419L209.754 80L203.904 80L182.455 44.4444L161.35 80L155.5 80L179.817 40Z" fill="#FF2626"/>
<path d="M94.0195 80L124.76 9.47134e-06L130.495 9.97272e-06L161.12 80L155.5 80L127.627 6.03989L99.5252 80L94.0195 80Z" fill="#FF2626"/>
<path d="M-6.10352e-05 80L22.2522 5.09859e-07L27.8726 1.00121e-06L49.8954 72.0228L72.2624 4.88189e-06L77.6534 5.35318e-06L99.5616 80L94.0558 80L74.7859 7.17949L52.6483 80L46.9132 80L25.0051 6.72365L5.62036 80L-6.10352e-05 80Z" fill="#FF2626"/>
</svg>
